<svg width="190" height="465" viewBox="0 0 190 465" fill="none" xmlns="http://www.w3.org/2000/svg">
<mask id="path-1-inside-1_1_17" fill="white">
<path fill-rule="evenodd" clip-rule="evenodd" d="M31.9081 338.841C27.5755 340.813 23.9492 340.966 21.1921 339.086C4.14096 327.46 26.7952 242.466 71.7918 149.246C116.788 56.0273 167.088 -10.1166 184.139 1.50992C197.001 10.2795 187.272 60.7904 162.405 125.088C164.593 124.55 166.467 124.771 167.986 125.807C182.807 135.913 158.335 219.695 113.326 312.939C68.3172 406.184 19.8157 473.581 4.99496 463.475C-6.39151 455.711 5.41474 404.46 31.9081 338.841Z"/>
</mask>
<path fill-rule="evenodd" clip-rule="evenodd" d="M31.9081 338.841C27.5755 340.813 23.9492 340.966 21.1921 339.086C4.14096 327.46 26.7952 242.466 71.7918 149.246C116.788 56.0273 167.088 -10.1166 184.139 1.50992C197.001 10.2795 187.272 60.7904 162.405 125.088C164.593 124.55 166.467 124.771 167.986 125.807C182.807 135.913 158.335 219.695 113.326 312.939C68.3172 406.184 19.8157 473.581 4.99496 463.475C-6.39151 455.711 5.41474 404.46 31.9081 338.841Z" fill="#727A6D"/>
<path d="M31.9081 338.841L33.7627 339.589L35.6376 334.945L31.0795 337.02L31.9081 338.841ZM21.1921 339.086L20.0654 340.739L20.0654 340.739L21.1921 339.086ZM184.139 1.50992L185.266 -0.142505L185.266 -0.142505L184.139 1.50992ZM162.405 125.088L160.54 124.366L159.155 127.946L162.883 127.03L162.405 125.088ZM167.986 125.807L169.113 124.155L169.113 124.155L167.986 125.807ZM113.326 312.939L115.127 313.809L115.127 313.809L113.326 312.939ZM4.99496 463.475L6.12168 461.823L6.12168 461.823L4.99496 463.475ZM31.0795 337.02C27.0361 338.861 24.2409 338.744 22.3188 337.434L20.0654 340.739C23.6575 343.188 28.1149 342.765 32.7367 340.661L31.0795 337.02ZM22.3189 337.434C20.7522 336.366 19.4268 334.3 18.563 330.919C17.7045 327.559 17.3651 323.133 17.5757 317.705C17.9966 306.858 20.5951 292.393 25.1566 275.279C34.2728 241.076 51.1341 196.644 73.593 150.116L69.9907 148.377C47.4529 195.068 30.4888 239.742 21.2915 274.248C16.6963 291.489 14.0161 306.278 13.5787 317.55C13.3602 323.182 13.6969 328.032 14.6875 331.909C15.6727 335.766 17.3693 338.9 20.0654 340.739L22.3189 337.434ZM73.593 150.116C96.0533 103.585 119.811 63.8689 140.037 37.2717C150.163 23.9562 159.33 14.0276 166.94 8.16415C170.751 5.22759 174.058 3.40054 176.808 2.62053C179.518 1.8517 181.511 2.13811 183.013 3.16234L185.266 -0.142505C182.505 -2.02491 179.196 -2.21479 175.716 -1.22764C172.276 -0.251648 168.504 1.90959 164.499 4.99559C156.476 11.1772 147.058 21.4308 136.853 34.8504C116.417 61.7233 92.5271 101.689 69.9907 148.377L73.593 150.116ZM183.013 3.16234C185.415 4.80034 187.171 8.74658 187.671 15.6221C188.162 22.3557 187.405 31.3139 185.452 42.1202C181.55 63.7097 172.949 92.2814 160.54 124.366L164.27 125.809C176.729 93.5965 185.425 64.7643 189.388 42.8316C191.368 31.8768 192.186 22.5445 191.661 15.3315C191.146 8.26051 189.294 2.6043 185.266 -0.142505L183.013 3.16234ZM162.883 127.03C164.678 126.588 165.93 126.826 166.86 127.46L169.113 124.155C167.004 122.717 164.508 122.511 161.928 123.145L162.883 127.03ZM166.86 127.46C168.069 128.284 169.153 130.069 169.775 133.303C170.387 136.489 170.484 140.75 170.035 146.028C169.138 156.569 166.103 170.757 161.172 187.636C151.32 221.367 133.995 265.518 111.525 312.07L115.127 313.809C137.666 267.116 155.082 222.754 165.012 188.757C169.973 171.771 173.091 157.292 174.02 146.367C174.485 140.912 174.413 136.242 173.703 132.548C173.002 128.901 171.609 125.857 169.113 124.155L166.86 127.46ZM111.525 312.07C89.0535 358.624 65.7329 398.676 46.2166 425.795C36.4467 439.371 27.6948 449.615 20.5352 455.818C16.9453 458.928 13.8692 460.922 11.3592 461.859C8.86795 462.79 7.23857 462.584 6.12168 461.823L3.86823 465.128C6.45654 466.892 9.58487 466.792 12.7587 465.606C15.9137 464.428 19.4099 462.086 23.1544 458.841C30.6638 452.336 39.6292 441.797 49.4633 428.132C69.1552 400.768 92.5897 360.499 115.127 313.809L111.525 312.07ZM6.12168 461.823C5.19998 461.194 4.34031 460.006 3.70335 457.982C3.06835 455.964 2.70965 453.282 2.67071 449.93C2.59285 443.229 3.79354 434.214 6.19983 423.284C11.0068 401.448 20.5383 372.344 33.7627 339.589L30.0536 338.092C16.7845 370.957 7.16626 400.288 2.29336 422.424C-0.14028 433.479 -1.41202 442.834 -1.32902 449.977C-1.28754 453.547 -0.907492 456.655 -0.112193 459.182C0.68114 461.704 1.94331 463.815 3.86824 465.128L6.12168 461.823Z" fill="black" mask="url(#path-1-inside-1_1_17)"/>
</svg>
